<?xml version="1.0" encoding="UTF-8" standalone="no"?>
<!-- Created with Inkscape (http://www.inkscape.org/) -->

<svg
   xmlns:dc="http://purl.org/dc/elements/1.1/"
   xmlns:cc="http://creativecommons.org/ns#"
   xmlns:rdf="http://www.w3.org/1999/02/22-rdf-syntax-ns#"
   xmlns:svg="http://www.w3.org/2000/svg"
   xmlns="http://www.w3.org/2000/svg"
   xmlns:xlink="http://www.w3.org/1999/xlink"
   xmlns:sodipodi="http://sodipodi.sourceforge.net/DTD/sodipodi-0.dtd"
   xmlns:inkscape="http://www.inkscape.org/namespaces/inkscape"
   width="112.00833mm"
   height="112.00833mm"
   viewBox="0 0 112.00833 112.00833"
   version="1.1"
   id="svg8"
   inkscape:version="0.92.4 (5da689c313, 2019-01-14)"
   sodipodi:docname="logo_00.svg">
  <g
     inkscape:groupmode="layer"
     id="g1717"
     inkscape:label="Flower 9 kopia kopia"
     style="display:inline"
     transform="translate(-51.916634,-86.63475)">
    <path
       style="fill:#000000;fill-opacity:1;stroke:none;stroke-width:0.07181102;stroke-linecap:butt;stroke-linejoin:miter;stroke-miterlimit:4;stroke-dasharray:none;stroke-opacity:1;paint-order:markers fill stroke"
       d="m 176.36719,334.42773 c -1.56967,-0.0542 -3.07655,0.55113 -3.70703,1.52344 -0.0238,2.49048 -2.0892,4.55358 -2.38868,7.07422 -0.54247,1.36399 -0.26429,3.13529 0.41993,4.08399 -1.09559,1.08071 -0.32174,1.63042 0.35937,3.25781 0.82634,1.8297 1.32296,-0.6195 1.62305,1.73828 -0.68068,7.09255 -0.0747,14.03722 0.61577,21.12278 0.43488,3.62702 3.71551,8.5795 5.20829,11.93788 -1.45177,-5.54997 -2.23299,-9.49072 -2.95849,-17.04018 -0.32515,-4.4194 0.86311,-8.68562 1.12076,-13.11228 0.89809,5.18359 2.29259,10.27041 3.37304,15.41797 0.63562,3.33471 5.152,9.2177 7.44838,14.41739 -0.32466,-4.27752 -3.57039,-16.03368 -4.29239,-20.23912 -0.68682,-3.13383 -1.15398,-6.71018 -1.74388,-9.86382 2.30237,-1.15528 2.11433,-4.14027 1.60742,-6.27343 -0.62237,-2.18317 -1.29807,-4.39313 -1.12304,-6.69532 -1.23791,-2.11396 -1.9725,-6.36354 -4.00196,-7.06445 -0.50736,-0.17522 -1.03732,-0.2671 -1.56054,-0.28516 z"
       transform="matrix(0.26458333,0,0,0.26458333,51.916634,86.63475)"
       id="path1749"
       inkscape:connector-curvature="0"
       sodipodi:nodetypes="cccccccccccccccccc" />
  </g>
</svg>
